<?xml version="1.0" encoding="UTF-8" standalone="no"?>
<!-- Created with Inkscape (http://www.inkscape.org/) -->

<svg
   width="48"
   height="48"
   viewBox="0 0 12.7 12.7"
   version="1.1"
   id="svg14986"
   inkscape:version="1.2 (dc2aeda, 2022-05-15)"
   sodipodi:docname="icon-hearts.svg"
   inkscape:export-filename="icon-hearts.png"
   inkscape:export-xdpi="96"
   inkscape:export-ydpi="96"
   xmlns:inkscape="http://www.inkscape.org/namespaces/inkscape"
   xmlns:sodipodi="http://sodipodi.sourceforge.net/DTD/sodipodi-0.dtd"
   xmlns="http://www.w3.org/2000/svg"
   xmlns:svg="http://www.w3.org/2000/svg">
  <sodipodi:namedview
     id="namedview14988"
     pagecolor="#ffffff"
     bordercolor="#666666"
     borderopacity="1.0"
     inkscape:showpageshadow="2"
     inkscape:pageopacity="0.0"
     inkscape:pagecheckerboard="0"
     inkscape:deskcolor="#d1d1d1"
     inkscape:document-units="mm"
     showgrid="false"
     inkscape:zoom="2.8284271"
     inkscape:cx="-87.858018"
     inkscape:cy="83.261824"
     inkscape:current-layer="layer1" />
  <defs
     id="defs14983">
    <clipPath
       clipPathUnits="userSpaceOnUse"
       id="clipPath196218">
      <path
         style="fill:none;stroke:#000000;stroke-width:0.264583px;stroke-linecap:butt;stroke-linejoin:miter;stroke-opacity:1"
         d="m 175.68724,289.3106 h 19.38432 l 24.36529,27.06039 -44.50484,0 z"
         id="path196220"
         sodipodi:nodetypes="ccccc" />
    </clipPath>
    <clipPath
       clipPathUnits="userSpaceOnUse"
       id="clipPath14896">
      <path
         style="fill:none;stroke:#000000;stroke-width:0.264583px;stroke-linecap:butt;stroke-linejoin:miter;stroke-opacity:1"
         d="m 175.68724,289.3106 h 19.38432 l 24.36529,27.06039 h -44.50484 z"
         id="path14894" />
    </clipPath>
    <clipPath
       clipPathUnits="userSpaceOnUse"
       id="clipPath14900">
      <path
         style="fill:none;stroke:#000000;stroke-width:0.264583px;stroke-linecap:butt;stroke-linejoin:miter;stroke-opacity:1"
         d="m 175.68724,289.3106 h 19.38432 l 24.36529,27.06039 h -44.50484 z"
         id="path14898" />
    </clipPath>
    <clipPath
       clipPathUnits="userSpaceOnUse"
       id="clipPath14904">
      <path
         style="fill:none;stroke:#000000;stroke-width:0.264583px;stroke-linecap:butt;stroke-linejoin:miter;stroke-opacity:1"
         d="m 175.68724,289.3106 h 19.38432 l 24.36529,27.06039 h -44.50484 z"
         id="path14902" />
    </clipPath>
    <clipPath
       clipPathUnits="userSpaceOnUse"
       id="clipPath14908">
      <path
         style="fill:none;stroke:#000000;stroke-width:0.264583px;stroke-linecap:butt;stroke-linejoin:miter;stroke-opacity:1"
         d="m 175.68724,289.3106 h 19.38432 l 24.36529,27.06039 h -44.50484 z"
         id="path14906" />
    </clipPath>
    <clipPath
       clipPathUnits="userSpaceOnUse"
       id="clipPath14912">
      <path
         style="fill:none;stroke:#000000;stroke-width:0.264583px;stroke-linecap:butt;stroke-linejoin:miter;stroke-opacity:1"
         d="m 175.68724,289.3106 h 19.38432 l 24.36529,27.06039 h -44.50484 z"
         id="path14910" />
    </clipPath>
    <clipPath
       clipPathUnits="userSpaceOnUse"
       id="clipPath14916">
      <path
         style="fill:none;stroke:#000000;stroke-width:0.264583px;stroke-linecap:butt;stroke-linejoin:miter;stroke-opacity:1"
         d="m 175.68724,289.3106 h 19.38432 l 24.36529,27.06039 h -44.50484 z"
         id="path14914" />
    </clipPath>
    <clipPath
       clipPathUnits="userSpaceOnUse"
       id="clipPath14920">
      <path
         style="fill:none;stroke:#000000;stroke-width:0.264583px;stroke-linecap:butt;stroke-linejoin:miter;stroke-opacity:1"
         d="m 175.68724,289.3106 h 19.38432 l 24.36529,27.06039 h -44.50484 z"
         id="path14918" />
    </clipPath>
    <clipPath
       clipPathUnits="userSpaceOnUse"
       id="clipPath14924">
      <path
         style="fill:none;stroke:#000000;stroke-width:0.264583px;stroke-linecap:butt;stroke-linejoin:miter;stroke-opacity:1"
         d="m 175.68724,289.3106 h 19.38432 l 24.36529,27.06039 h -44.50484 z"
         id="path14922" />
    </clipPath>
  </defs>
  <g
     inkscape:label="Layer 1"
     inkscape:groupmode="layer"
     id="layer1"
     transform="translate(-22.602516,-121.9473)">
    <g
       id="g770413"
       transform="matrix(0.1971041,0.13612726,-0.13612726,0.1971041,31.34588,41.60778)"
       style="fill:#ffea69;fill-opacity:1" />
    <g
       id="g770421"
       transform="matrix(0.22607595,0.05645499,-0.05645499,0.22607595,-2.1615756,50.75245)"
       style="fill:#97e1e7;fill-opacity:1">
      <path
         id="path16126"
         clip-path="none"
         style="opacity:1;fill:#e79125;fill-opacity:1;stroke-width:0.366789;paint-order:stroke markers fill;stop-color:#000000"
         inkscape:transform-center-x="-0.074601459"
         inkscape:transform-center-y="0.95634729"
         d="m 198.16779,268.52673 c -1.3794,0.35265 -2.56137,1.36319 -3.07849,2.81028 l -0.64012,1.78728 -2.04088,-0.49665 c -1.4932,-0.36301 -2.98548,0.0696 -4.03775,1.02833 -0.63136,0.57523 -1.10503,1.34014 -1.32285,2.23605 -0.58081,2.38915 0.87524,4.77979 3.26439,5.36061 l 8.63239,1.83166 c -0.32192,-4.0463 1.42693,-8.05464 4.75329,-10.56418 -0.11702,-1.70505 -1.21939,-3.2569 -2.93684,-3.87062 -0.86826,-0.31027 -1.76549,-0.33435 -2.59314,-0.12276 z" />
      <path
         id="path16124"
         clip-path="none"
         style="opacity:1;fill:#ffea69;fill-opacity:1;stroke-width:0.765;paint-order:stroke markers fill;stop-color:#000000"
         d="m 208.0878,272.5459 c -0.6708,0.16376 -1.33292,0.40596 -1.97728,0.72975 -4.58212,2.30252 -6.41667,7.84617 -4.11413,12.42828 l 1.4038,2.5993 1.68466,-1.51825 c 4.62972,-4.16862 11.71653,-3.79882 15.88513,0.8309 3.19883,3.55265 3.71152,8.54736 1.69033,12.56394 l 8.0857,-2.95196 c 4.79771,-1.81096 7.20529,-7.131 5.39434,-11.92869 -1.81096,-4.79769 -7.13465,-7.20215 -11.93236,-5.3912 l -3.70257,1.3988 -1.96871,-3.91646 c -1.43908,-2.86382 -4.14233,-4.65336 -7.08717,-5.03158 -1.10431,-0.14185 -2.24372,-0.0858 -3.36174,0.18717 z" />
      <path
         id="rect770417"
         clip-path="none"
         style="opacity:1;stroke-width:0.765;paint-order:stroke markers fill;stop-color:#000000"
         d="m 185.94753,296.78137 c -0.99612,1.47688 -1.57835,3.2594 -1.57835,5.18245 0,5.1281 4.12949,9.25571 9.2576,9.25571 l 20.89713,-0.61607 2.30857,-19.89794 c 0.53603,-5.10002 -3.13692,-9.63891 -8.23693,-10.17494 -5.10002,-0.53604 -9.63832,3.1399 -10.17436,8.23992 l -0.41284,3.93626 -4.38166,6.7e-4 c -3.20507,0 -6.01895,1.61246 -7.67916,4.07394 z"
         sodipodi:nodetypes="sscccscccs"
         transform="rotate(42,202.88289,298.9426)" />
    </g>
  </g>
</svg>
